<svg viewBox="0 0 2496 669" focusable="false" class="chakra-icon css-75ozl3" xmlns="http://www.w3.org/2000/svg" zoomAndPan="magnify" preserveAspectRatio="xMidYMid meet" version="1.0"><path fill-rule="evenodd" clip-rule="evenodd" d="M1.99997 0H527.5V125.5L442 211L358 297.5L1.99997 28.5V0ZM512 201L725 2.00004V176.5L576.5 318L725 453V596L512 422V201ZM342.5 361.5L0 93V591.5L59.5 653V524L145 445V669H244V445L336.5 524V669H722L342.5 361.5Z" fill="url(#paint0_radial_5_39)"></path><path d="M1179.98 155.545V517H1105.85L962.014 308.387H959.719V517H872.356V155.545H947.542L1089.79 363.805H1092.79V155.545H1179.98ZM1408.4 303.092V369.453H1241.09V303.092H1408.4ZM1602.94 517H1469.34V155.545H1602.77C1639.59 155.545 1671.3 162.782 1697.9 177.254C1724.6 191.609 1745.19 212.317 1759.67 239.379C1774.14 266.323 1781.38 298.562 1781.38 336.096C1781.38 373.748 1774.14 406.105 1759.67 433.167C1745.31 460.229 1724.78 480.996 1698.07 495.468C1671.36 509.823 1639.65 517 1602.94 517ZM1556.7 442.521H1599.59C1619.83 442.521 1636.95 439.108 1650.95 432.284C1665.07 425.342 1675.72 414.105 1682.89 398.574C1690.19 382.925 1693.84 362.099 1693.84 336.096C1693.84 310.093 1690.19 289.385 1682.89 273.971C1675.6 258.44 1664.83 247.262 1650.6 240.438C1636.48 233.496 1619.06 230.025 1598.35 230.025H1556.7V442.521ZM1832.38 517V155.545H2084.41V226.495H1919.74V300.621H2071.53V371.748H1919.74V446.05H2084.41V517H1832.38ZM2221.19 155.545L2302.03 420.283H2305.03L2385.86 155.545H2483.64L2361.68 517H2245.37L2123.42 155.545H2221.19Z" fill="white"></path><defs><radialGradient id="paint0_radial_5_39" cx="0" cy="0" r="1" gradientUnits="userSpaceOnUse" gradientTransform="translate(362 333.998) rotate(89.739) scale(219.504 237.878)"><stop stop-color="#B0B0B0"></stop><stop offset="1" stop-color="white"></stop></radialGradient></defs></svg>
