<svg viewBox="0 0 2498 669" focusable="false" class="chakra-icon css-75ozl3" xmlns="http://www.w3.org/2000/svg" zoomAndPan="magnify" preserveAspectRatio="xMidYMid meet" version="1.0"><path fill-rule="evenodd" clip-rule="evenodd" d="M1.99997 0H527.5V125.5L442 211L358 297.5L1.99997 28.5V0ZM512 201L725 2.00004V176.5L576.5 318L725 453V596L512 422V201ZM342.5 361.5L0 93V591.5L59.5 653V524L145 445V669H244V445L336.5 524V669H722L342.5 361.5Z" fill="url(#paint0_radial_5_36)"></path><path d="M1181.98 154.545V516H1107.85L964.014 307.387H961.719V516H874.356V154.545H949.542L1091.79 362.805H1094.79V154.545H1181.98ZM1410.4 302.092V368.453H1243.09V302.092H1410.4ZM1604.94 516H1471.34V154.545H1604.77C1641.59 154.545 1673.3 161.782 1699.9 176.254C1726.6 190.609 1747.19 211.317 1761.67 238.379C1776.14 265.323 1783.38 297.562 1783.38 335.096C1783.38 372.748 1776.14 405.105 1761.67 432.167C1747.31 459.229 1726.78 479.996 1700.07 494.468C1673.36 508.823 1641.65 516 1604.94 516ZM1558.7 441.521H1601.59C1621.83 441.521 1638.95 438.108 1652.95 431.284C1667.07 424.342 1677.72 413.105 1684.89 397.574C1692.19 381.925 1695.84 361.099 1695.84 335.096C1695.84 309.093 1692.19 288.385 1684.89 272.971C1677.6 257.44 1666.83 246.262 1652.6 239.438C1638.48 232.496 1621.06 229.025 1600.35 229.025H1558.7V441.521ZM1834.38 516V154.545H2086.41V225.495H1921.74V299.621H2073.53V370.748H1921.74V445.05H2086.41V516H1834.38ZM2223.19 154.545L2304.03 419.283H2307.03L2387.86 154.545H2485.64L2363.68 516H2247.37L2125.42 154.545H2223.19Z" fill="#151515"></path><defs><radialGradient id="paint0_radial_5_36" cx="0" cy="0" r="1" gradientUnits="userSpaceOnUse" gradientTransform="translate(362 333.998) rotate(90) scale(561.178 608.152)"><stop stop-color="#090909"></stop><stop offset="1" stop-color="#474747"></stop></radialGradient></defs></svg>
